<svg width="25" height="27" viewBox="0 0 25 27" fill="none" xmlns="http://www.w3.org/2000/svg">
<path d="M12.3267 8.73321C11.11 8.73321 9.94312 9.21655 9.08278 10.0769C8.22244 10.9372 7.73911 12.1041 7.73911 13.3208C7.73911 14.5375 8.22244 15.7044 9.08278 16.5647C9.94312 17.4251 11.11 17.9084 12.3267 17.9084C13.5434 17.9084 14.7103 17.4251 15.5706 16.5647C16.431 15.7044 16.9143 14.5375 16.9143 13.3208C16.9143 12.1041 16.431 10.9372 15.5706 10.0769C14.7103 9.21655 13.5434 8.73321 12.3267 8.73321ZM9.57414 13.3208C9.57414 12.5908 9.86414 11.8907 10.3803 11.3745C10.8966 10.8583 11.5967 10.5683 12.3267 10.5683C13.0567 10.5683 13.7568 10.8583 14.2731 11.3745C14.7893 11.8907 15.0793 12.5908 15.0793 13.3208C15.0793 14.0508 14.7893 14.751 14.2731 15.2672C13.7568 15.7834 13.0567 16.0734 12.3267 16.0734C11.5967 16.0734 10.8966 15.7834 10.3803 15.2672C9.86414 14.751 9.57414 14.0508 9.57414 13.3208ZM9.42734 25.8248C10.377 26.0514 11.3505 26.1661 12.3267 26.1661C13.302 26.1646 14.2739 26.0491 15.2224 25.822C15.4949 25.7578 15.7409 25.6108 15.9265 25.4011C16.1122 25.1915 16.2284 24.9296 16.2592 24.6513L16.4739 22.6969C16.4945 22.4837 16.5655 22.2784 16.6812 22.098C16.7968 21.9176 16.9538 21.7674 17.139 21.6597C17.3243 21.552 17.5325 21.49 17.7464 21.4787C17.9604 21.4675 18.174 21.5073 18.3695 21.595L20.1632 22.3813C20.42 22.4943 20.7056 22.5246 20.9804 22.4678C21.2551 22.4111 21.5054 22.2702 21.6964 22.0648C23.0218 20.6367 24.0112 18.9304 24.5921 17.0707C24.6754 16.8017 24.6729 16.5135 24.5849 16.246C24.497 15.9785 24.3279 15.745 24.1012 15.5779L22.5148 14.4081C22.3416 14.2818 22.2006 14.1163 22.1035 13.9252C22.0065 13.734 21.956 13.5226 21.9563 13.3082C21.9565 13.0938 22.0075 12.8825 22.1051 12.6916C22.2026 12.5007 22.344 12.3355 22.5176 12.2097L24.0957 11.0435C24.3237 10.8769 24.4938 10.6431 24.5822 10.3748C24.6705 10.1066 24.6727 9.81749 24.5884 9.54797C24.0084 7.68793 23.0186 5.98167 21.6918 4.55483C21.5 4.34971 21.2492 4.20912 20.9742 4.15243C20.6991 4.09574 20.4132 4.12574 20.1559 4.23829L18.3704 5.02368C18.1747 5.10899 17.9617 5.14705 17.7485 5.13479C17.5354 5.12253 17.3281 5.06029 17.1435 4.95311C16.9589 4.84592 16.8021 4.6968 16.6857 4.51779C16.5694 4.33878 16.4968 4.13491 16.4739 3.92266L16.2574 1.97752C16.2271 1.69589 16.1093 1.43085 15.9205 1.21968C15.7317 1.00852 15.4814 0.861858 15.205 0.800345C14.2628 0.589825 13.3012 0.4782 12.3359 0.467285C11.3648 0.478777 10.3975 0.590387 9.44936 0.800345C9.17284 0.860806 8.92238 1.00679 8.73348 1.21759C8.54459 1.42838 8.42685 1.6933 8.39697 1.97477L8.17951 3.92174C8.15576 4.13431 8.08256 4.33837 7.96577 4.51756C7.84899 4.69676 7.69186 4.84612 7.50698 4.95367C7.32209 5.06123 7.11459 5.124 6.90109 5.13696C6.68759 5.14991 6.47403 5.11269 6.2775 5.02827L4.49201 4.24196C4.23438 4.13254 3.94943 4.10465 3.67548 4.16207C3.40154 4.21948 3.15175 4.35943 2.95975 4.56309C1.63268 5.99158 0.642031 7.69888 0.0603881 9.5599C-0.0223959 9.82873 -0.0195333 10.1167 0.0685798 10.3838C0.156693 10.6509 0.325695 10.884 0.552178 11.0509L2.1349 12.218C2.30731 12.3448 2.44747 12.5104 2.54408 12.7015C2.64068 12.8925 2.69101 13.1035 2.69101 13.3176C2.69101 13.5317 2.64068 13.7427 2.54408 13.9337C2.44747 14.1248 2.30731 14.2904 2.1349 14.4172L0.552178 15.5871C0.325022 15.7542 0.155648 15.988 0.0676588 16.2559C-0.0203302 16.5238 -0.022551 16.8125 0.0613056 17.0817C0.64268 18.9439 1.63333 20.6525 2.96067 22.0822C3.08685 22.2179 3.23984 22.3258 3.40995 22.3993C3.58005 22.4727 3.76356 22.51 3.94883 22.5088C4.13509 22.5088 4.31951 22.4712 4.49109 22.3969L6.28484 21.6088C6.48048 21.5242 6.69323 21.4868 6.90598 21.4994C7.11874 21.512 7.32556 21.5744 7.50983 21.6815C7.6941 21.7886 7.85069 21.9374 7.96699 22.116C8.0833 22.2946 8.15609 22.4979 8.17951 22.7098L8.39513 24.6604C8.42662 24.9371 8.54262 25.1973 8.72733 25.4056C8.91203 25.614 9.15646 25.7603 9.42734 25.8248ZM14.4746 24.1127C13.0589 24.4031 11.5991 24.4031 10.1834 24.1127L10.0045 22.5162C9.917 21.7352 9.54458 21.0139 8.95849 20.4903C8.49967 20.0862 7.93591 19.82 7.33229 19.7226C6.72867 19.6252 6.10981 19.7005 5.54715 19.9398L4.07362 20.5821C3.12306 19.4936 2.39156 18.2319 1.91928 16.8661L3.22583 15.9009C3.62948 15.6034 3.9576 15.2153 4.18373 14.7678C4.40986 14.3203 4.52767 13.8259 4.52767 13.3245C4.52767 12.8231 4.40986 12.3287 4.18373 11.8812C3.9576 11.4336 3.62948 11.0455 3.22583 10.7481L1.92203 9.78561C2.39487 8.42122 3.12633 7.16078 4.07637 6.07333L5.5444 6.71559C5.94903 6.89426 6.38661 6.98616 6.82893 6.98534C7.61661 6.98287 8.3759 6.69099 8.96242 6.16521C9.54893 5.63942 9.92175 4.91642 10.01 4.13369L10.188 2.53079C10.8981 2.39316 11.6193 2.31976 12.3414 2.31058C13.0589 2.31976 13.7745 2.39316 14.4792 2.52987L14.6499 4.12635C14.7346 4.90991 15.1062 5.63443 15.6931 6.16049C16.1522 6.56701 16.7175 6.83461 17.323 6.93208C17.9284 7.02956 18.5491 6.95288 19.1127 6.711L20.5807 6.06874C21.5321 7.1559 22.2642 8.41678 22.7369 9.78194L21.4312 10.7417C21.0253 11.038 20.6951 11.4259 20.4675 11.8739C20.2398 12.3219 20.1212 12.8174 20.1212 13.3199C20.1212 13.8224 20.2398 14.3179 20.4675 14.7659C20.6951 15.2139 21.0253 15.6018 21.4312 15.8981L22.736 16.8606C22.2631 18.2238 21.5327 19.4835 20.5844 20.571L19.1163 19.9288C18.657 19.7244 18.1558 19.6315 17.6538 19.6579C17.1517 19.6842 16.663 19.829 16.2276 20.0803C15.7922 20.3317 15.4224 20.6825 15.1485 21.1041C14.8746 21.5257 14.7044 22.0061 14.6517 22.5061L14.4746 24.1127Z" fill="#303540"/>
</svg>
